<svg width="207" height="210" viewBox="0 0 207 210" fill="none" xmlns="http://www.w3.org/2000/svg">
<path d="M118.852 25.8081C117.918 26.3418 116.984 26.8755 115.383 26.8755C113.502 26.8755 109.513 26.3418 109.513 23.6734C109.513 21.0049 113.782 19.4038 116.984 19.4038C118.335 19.4038 120.13 19.8375 121.254 20.151L121.254 24.8308C120.263 25.0042 119.556 25.4078 118.852 25.8114L118.852 25.8081ZM124.456 20.4712C125.634 20.4712 126.591 21.4285 126.591 22.606C126.591 23.7834 125.634 24.7407 124.456 24.7407L122.855 24.7407L122.855 20.4712L124.456 20.4712Z" fill="#F4A751"/>
<path d="M138.449 34.1091C139.016 34.6723 139.585 35.2363 140.484 35.6505L139.292 40.1013C138.143 40.113 136.329 40.0689 135.041 39.7238C131.995 38.9078 128.343 36.2971 129.023 33.7593C129.703 31.2215 133.633 31.7305 135.422 32.2099C136.945 32.6179 137.697 33.3635 138.449 34.1091ZM142.418 40.6127L140.896 40.2047L141.984 36.1442L143.507 36.5522C144.626 36.8523 145.293 38.0067 144.993 39.1265C144.693 40.2463 143.538 40.9128 142.418 40.6127Z" fill="#F4A751"/>
<path d="M162.263 40.936C161.204 40.9312 160.145 40.9265 158.779 40.1383C157.175 39.2122 154.036 36.7932 155.35 34.5178C156.664 32.2424 161.093 32.9791 163.823 34.5555C164.975 35.2206 166.292 36.4738 167.096 37.2945L164.792 41.2849C163.862 40.9451 163.06 40.9411 162.261 40.9388L162.263 40.936ZM169.668 39.144C170.672 39.7236 171.017 41.0112 170.438 42.0152C169.858 43.0192 168.571 43.3642 167.567 42.7845L166.201 41.9963L168.303 38.3558L169.668 39.144Z" fill="#F4A751"/>
<path d="M175.118 57.7703C175.327 58.5413 175.538 59.3146 176.11 60.1227L172.851 63.3809C171.851 62.8166 170.302 61.8714 169.359 60.9285C167.129 58.6992 165.272 54.612 167.129 52.7541C168.987 50.8963 172.136 53.3022 173.446 54.612C174.561 55.7267 174.839 56.7485 175.118 57.7703ZM175.304 65.3873L174.189 64.2726L177.162 61.3001L178.276 62.4148C179.096 63.2346 179.096 64.5676 178.276 65.3873C177.456 66.2071 176.124 66.2071 175.304 65.3873Z" fill="#F4A751"/>
<path d="M192.328 75.5894C191.413 75.0557 190.498 74.5221 189.71 73.1569C188.784 71.5528 187.275 67.8884 189.55 66.5747C191.826 65.261 195.293 68.1134 196.869 70.8438C197.534 71.9957 198.048 73.7394 198.334 74.8522L194.344 77.1561C193.708 76.3967 193.016 75.9925 192.325 75.591L192.328 75.5894ZM199.637 77.7403C200.217 78.7443 199.872 80.0318 198.868 80.6115C197.864 81.1912 196.577 80.8462 195.997 79.8422L195.209 78.4769L198.849 76.3751L199.637 77.7403Z" fill="#F4A751"/>
<path d="M195.044 96.5957C194.839 97.3679 194.635 98.1433 194.726 99.1288L190.275 100.321C189.691 99.3322 188.822 97.7392 188.477 96.4512C187.661 93.4058 188.095 88.9373 190.633 88.2573C193.171 87.5773 194.695 91.2353 195.175 93.0245C195.583 94.5472 195.313 95.5714 195.044 96.5957ZM191.396 103.285L190.988 101.762L195.048 100.674L195.456 102.197C195.757 103.317 195.09 104.471 193.97 104.771C192.85 105.071 191.696 104.405 191.396 103.285Z" fill="#F4A751"/>
<path d="M200.863 120.537C200.351 119.603 199.84 118.669 199.84 117.068C199.84 115.187 200.351 111.198 202.909 111.198C205.466 111.198 207 115.467 207 118.669C207 120.02 206.585 121.815 206.284 122.939L201.799 122.939C201.633 121.948 201.246 121.241 200.86 120.537L200.863 120.537ZM205.977 126.141C205.977 127.319 205.06 128.276 203.931 128.276C202.803 128.276 201.886 127.319 201.886 126.141L201.886 124.54L205.977 124.54L205.977 126.141Z" fill="#F4A751"/>
<path d="M192.887 140.182C192.324 140.749 191.76 141.319 191.346 142.217L186.895 141.025C186.883 139.876 186.927 138.062 187.272 136.774C188.088 133.729 190.699 130.076 193.237 130.756C195.775 131.436 195.266 135.366 194.786 137.155C194.378 138.678 193.633 139.43 192.887 140.182ZM186.383 144.152L186.791 142.629L190.852 143.717L190.444 145.24C190.144 146.36 188.989 147.026 187.87 146.726C186.75 146.426 186.083 145.272 186.383 144.152Z" fill="#F4A751"/>
<path d="M186.061 163.996C186.065 162.937 186.07 161.878 186.858 160.512C187.784 158.908 190.203 155.769 192.479 157.083C194.754 158.397 194.017 162.825 192.441 165.556C191.776 166.708 190.523 168.024 189.702 168.829L185.712 166.525C186.051 165.595 186.055 164.793 186.058 163.994L186.061 163.996ZM187.853 171.401C187.273 172.405 185.985 172.75 184.981 172.171C183.977 171.591 183.632 170.304 184.212 169.3L185 167.934L188.641 170.036L187.853 171.401Z" fill="#F4A751"/>
<path d="M169.227 176.851C168.456 177.06 167.683 177.271 166.875 177.842L163.617 174.584C164.181 173.583 165.126 172.034 166.069 171.092C168.298 168.862 172.386 167.004 174.243 168.862C176.101 170.72 173.695 173.869 172.386 175.179C171.271 176.294 170.249 176.572 169.227 176.851ZM161.61 177.037L162.725 175.922L165.697 178.894L164.583 180.009C163.763 180.829 162.43 180.829 161.61 180.009C160.79 179.189 160.79 177.856 161.61 177.037Z" fill="#F4A751"/>
<path d="M151.407 194.061C151.941 193.147 152.474 192.232 153.84 191.444C155.444 190.517 159.108 189.008 160.422 191.284C161.736 193.559 158.883 197.026 156.153 198.603C155.001 199.268 153.257 199.781 152.144 200.067L149.841 196.077C150.6 195.441 151.004 194.749 151.406 194.059L151.407 194.061ZM149.256 201.371C148.252 201.951 146.965 201.606 146.385 200.602C145.805 199.598 146.15 198.31 147.154 197.73L148.52 196.942L150.622 200.583L149.256 201.371Z" fill="#F4A751"/>
<path d="M130.402 196.777C129.63 196.573 128.854 196.369 127.869 196.46L126.676 192.009C127.665 191.425 129.258 190.556 130.546 190.211C133.592 189.395 138.06 189.829 138.74 192.367C139.42 194.905 135.762 196.429 133.973 196.909C132.45 197.317 131.426 197.047 130.402 196.777ZM123.712 193.13L125.235 192.722L126.323 196.782L124.8 197.19C123.681 197.49 122.526 196.824 122.226 195.704C121.926 194.584 122.593 193.43 123.712 193.13Z" fill="#F4A751"/>
<path d="M106.364 202.772C107.284 202.246 108.204 201.721 109.78 201.721C111.632 201.721 115.56 202.246 115.56 204.874C115.56 207.501 111.356 209.077 108.204 209.077C106.873 209.077 105.107 208.65 104 208.342L104 203.734C104.975 203.563 105.671 203.166 106.364 202.768L106.364 202.772ZM100.847 208.026C99.6877 208.026 98.7451 207.084 98.7451 205.924C98.7451 204.765 99.6877 203.823 100.847 203.823L102.423 203.823L102.423 208.026L100.847 208.026Z" fill="#F4A751"/>
<path d="M86.8146 194.621C86.2481 194.058 85.6784 193.494 84.7796 193.08L85.9722 188.629C87.1211 188.617 88.9351 188.662 90.2231 189.007C93.2685 189.823 96.921 192.433 96.241 194.971C95.561 197.509 91.6309 197 89.8418 196.521C88.3191 196.113 87.5668 195.367 86.8146 194.621ZM82.8452 188.118L84.3679 188.526L83.2798 192.586L81.7572 192.178C80.6373 191.878 79.9708 190.724 80.2709 189.604C80.571 188.484 81.7254 187.818 82.8452 188.118Z" fill="#F4A751"/>
<path d="M62.9998 187.794C64.0589 187.798 65.118 187.803 66.4832 188.591C68.0874 189.517 71.2263 191.936 69.9126 194.212C68.5989 196.487 64.1701 195.75 61.4397 194.174C60.2878 193.509 58.9711 192.256 58.167 191.435L60.4709 187.445C61.401 187.784 62.2026 187.788 63.0015 187.791L62.9998 187.794ZM55.5942 189.586C54.5902 189.006 54.2452 187.718 54.8249 186.714C55.4045 185.71 56.6921 185.365 57.6961 185.945L59.0613 186.733L56.9594 190.374L55.5942 189.586Z" fill="#F4A751"/>
<path d="M50.1457 170.961C49.9367 170.19 49.7254 169.417 49.1541 168.609L52.4122 165.351C53.4131 165.915 54.9621 166.86 55.9049 167.803C58.1343 170.032 59.9921 174.119 58.1343 175.977C56.2765 177.835 53.1275 175.429 51.8177 174.119C50.703 173.005 50.4244 171.983 50.1457 170.961ZM49.9599 163.344L51.0746 164.459L48.1021 167.431L46.9874 166.317C46.1676 165.497 46.1676 164.164 46.9874 163.344C47.8072 162.524 49.1402 162.524 49.9599 163.344Z" fill="#F4A751"/>
<path d="M32.9356 153.14C33.8505 153.674 34.7654 154.207 35.5536 155.573C36.4797 157.177 37.9886 160.841 35.7132 162.155C33.4379 163.468 29.9708 160.616 28.3944 157.886C27.7293 156.734 27.2156 154.99 26.9296 153.877L30.92 151.573C31.5556 152.333 32.2479 152.737 32.9385 153.138L32.9356 153.14ZM25.6262 150.989C25.0466 149.985 25.3916 148.698 26.3956 148.118C27.3996 147.538 28.6871 147.883 29.2668 148.887L30.055 150.253L26.4144 152.354L25.6262 150.989Z" fill="#F4A751"/>
<path d="M30.2201 132.135C30.4246 131.363 30.6282 130.587 30.5376 129.602L34.9883 128.409C35.5729 129.398 36.4418 130.991 36.7869 132.279C37.6029 135.325 37.1682 139.793 34.6304 140.473C32.0925 141.153 30.5684 137.495 30.089 135.706C29.681 134.183 29.9505 133.159 30.2201 132.135ZM33.8677 125.445L34.2757 126.968L30.2152 128.056L29.8072 126.533C29.5072 125.414 30.1737 124.259 31.2935 123.959C32.4133 123.659 33.5677 124.326 33.8677 125.445Z" fill="#F4A751"/>
<path d="M24.2244 108.098C24.7499 109.017 25.2754 109.937 25.2754 111.513C25.2754 113.366 24.7499 117.294 22.1225 117.294C19.4952 117.294 17.9188 113.09 17.9188 109.937C17.9188 108.607 18.3457 106.84 18.6545 105.733L23.2622 105.733C23.4329 106.709 23.8303 107.405 24.2277 108.098L24.2244 108.098ZM18.9697 102.58C18.9697 101.421 19.9123 100.479 21.0716 100.479C22.2309 100.479 23.1735 101.421 23.1735 102.58L23.1735 104.157L18.9697 104.157L18.9697 102.58Z" fill="#F4A751"/>
<path d="M31.6117 84.4297L30.7774 87.4361L34.2694 88.4052L32.9858 93.0304L18.5321 89.019L20.5538 81.7344C21.4737 78.4197 23.7144 77.2565 27.2758 78.2449C29.2338 78.7883 30.5632 79.6222 31.264 80.7466C31.5288 81.1687 31.7053 81.6993 31.7937 82.3382C31.882 82.9771 31.8214 83.6743 31.6117 84.4297ZM23.5158 85.4208L27.0772 86.4092L27.3725 85.3454C27.5265 84.7904 27.5838 84.3745 27.5443 84.0979C27.4937 83.8016 27.2603 83.5956 26.844 83.4801L25.2252 83.0309C24.809 82.9153 24.5105 82.9736 24.3298 83.2058C24.138 83.4182 23.9651 83.802 23.8111 84.357L23.5158 85.4208Z" fill="#F4A751"/>
<path d="M30.1703 65.8536C32.0227 62.49 34.1052 61.4449 36.4177 62.7184L43.7757 66.7706L42.6179 68.8729L40.7597 69.4112C41.0124 70.0801 41.0789 70.8382 40.9593 71.6857C40.8396 72.5331 40.6062 73.2721 40.2588 73.9028C39.9192 74.5195 39.5962 74.99 39.2897 75.3144C38.9832 75.6388 38.6104 75.9175 38.1715 76.1507C37.227 76.6717 36.068 76.554 34.6945 75.7976C32.1718 74.4083 31.9601 71.8076 34.0595 67.9955L34.5226 67.1545L33.7658 66.7378C33.4908 67.1708 33.2722 67.5345 33.1101 67.8288C32.238 69.4125 31.6785 70.8762 31.4317 72.2198L28.1476 71.0688C28.4849 69.428 29.1592 67.6896 30.1703 65.8536ZM36.5707 71.2963L37.4326 71.771L37.9073 70.9091C38.2469 70.2924 38.393 69.8614 38.3454 69.616C38.3056 69.3566 38.1736 69.1652 37.9493 69.0417L36.9613 68.4975L36.4866 69.3595C36.2087 69.864 36.0602 70.2663 36.0412 70.5663C36.0158 70.8446 36.1923 71.0879 36.5707 71.2963ZM29.8485 65.8408C29.3777 66.6957 28.8419 67.2044 28.2411 67.3667C27.6262 67.5212 26.9124 67.3747 26.0995 66.927C25.2726 66.4716 24.7671 65.9467 24.5831 65.3522C24.3851 64.7499 24.5214 64.0213 24.9923 63.1664C25.4708 62.2975 26.0175 61.7857 26.6323 61.6311C27.2332 61.4688 27.947 61.6154 28.7739 62.0707C29.5868 62.5184 30.0923 63.0434 30.2903 63.6456C30.4743 64.2401 30.3271 64.9719 29.8485 65.8408ZM26.4822 65.1376L27.9117 65.9249L28.398 65.042C28.5137 64.8317 28.5916 64.6737 28.6317 64.5679C28.744 64.2644 28.646 64.0278 28.3376 63.858L26.9291 63.0823L26.4776 63.9022C26.246 64.3226 26.1484 64.6159 26.1848 64.7821C26.2289 64.9342 26.328 65.0527 26.4822 65.1376Z" fill="#F4A751"/>
<path d="M50.3219 38.3907L54.2869 35.2406L60.7051 49.2993L55.218 53.6587L42.9745 44.2281L46.9395 41.078L54.4637 47.2692L54.6328 47.1348L50.3219 38.3907Z" fill="#F4A751"/>
<path d="M70.0739 43.3714L65.0789 33.1239L69.1307 30.4814L74.3886 41.2682L70.0739 43.3714ZM64.7168 31.7786C64.2812 31.6883 63.9057 31.3195 63.5902 30.6723C63.2748 30.0251 63.2121 29.495 63.4024 29.0819C63.607 28.6617 64.1839 28.2203 65.1331 27.7576C66.0967 27.2879 66.7999 27.1054 67.2425 27.2101C67.6994 27.3077 68.0857 27.6801 68.4011 28.3273C68.7166 28.9745 68.7685 29.501 68.5569 29.9068C68.3597 30.3055 67.7793 30.7397 66.8156 31.2094C65.8664 31.6721 65.1668 31.8618 64.7168 31.7786Z" fill="#F4A751"/>
<path d="M81.3292 25.0259L81.6224 25.9903L83.0002 25.5714L83.9076 28.5565L82.5299 28.9754L85.1128 37.4715L80.5203 38.8676L77.9374 30.3715L76.7893 30.7206L75.8818 27.7354L77.0299 27.3864L76.7718 25.9598C76.451 24.1342 77.5305 22.8444 80.0104 22.0905C80.6534 21.8951 81.5186 21.7157 82.6061 21.5523L83.268 24.6371L81.3292 25.0259Z" fill="#F4A751"/>
<path d="M89.6847 27.3032L89.2931 24.232L90.4835 24.0802L90.2406 22.1757L94.8503 20.3782L95.2449 23.4732L96.8876 23.2637L97.2792 26.3349L95.6365 26.5443L96.3285 31.9724C96.7513 31.9991 97.2266 31.995 97.7544 31.96L97.9863 35.4869C95.8119 35.7642 94.3842 35.8252 93.7031 35.6701C92.8572 35.4876 92.3008 35.1715 92.0337 34.7216C91.8704 34.4521 91.7644 34.1269 91.7158 33.746L90.875 27.1514L89.6847 27.3032Z" fill="#F4A751"/>
<g clip-path="url(#clip0_403_3727)">
<path d="M122.864 102.025L79.0413 75.3336C77.0955 74.2338 74.346 76.8987 75.4035 78.8868L101.418 123.555L146.087 149.57C146.591 149.753 147.137 149.786 147.66 149.667C148.183 149.547 148.661 149.28 149.035 148.896C149.41 148.512 149.667 148.029 149.774 147.503C149.881 146.977 149.834 146.432 149.64 145.932L122.864 102.025ZM105.944 118.945L118.634 106.255L137.88 137.726L105.944 118.945Z" fill="#F4A751"/>
<path d="M110.936 45.7239C97.5498 45.7239 84.4647 49.6932 73.3348 57.13C62.2049 64.5667 53.5302 75.1368 48.4077 87.5037C43.2852 99.8706 41.9449 113.479 44.5563 126.607C47.1678 139.736 53.6136 151.795 63.0788 161.26C72.544 170.726 84.6034 177.171 97.732 179.783C110.861 182.394 124.469 181.054 136.836 175.932C149.202 170.809 159.773 162.134 167.209 151.004C174.646 139.875 178.615 126.789 178.615 113.404C178.615 95.4538 171.485 78.2392 158.792 65.5468C146.1 52.8544 128.885 45.7239 110.936 45.7239ZM115.166 172.412V162.175H106.706V172.412C92.5183 171.382 79.1755 165.28 69.1171 155.222C59.0587 145.164 52.9569 131.821 51.9274 117.634H62.1639V109.174H51.9274C52.9569 94.9863 59.0587 81.6435 69.1171 71.5851C79.1755 61.5267 92.5183 55.4249 106.706 54.3953V64.6319H115.166V54.3953C129.353 55.4249 142.696 61.5267 152.754 71.5851C162.813 81.6435 168.914 94.9863 169.944 109.174H159.707V117.634H169.944C168.914 131.821 162.813 145.164 152.754 155.222C142.696 165.28 129.353 171.382 115.166 172.412Z" fill="#F4A751"/>
</g>
<defs>
<clipPath id="clip0_403_3727">
<rect width="152.279" height="152.279" fill="white" transform="translate(34.7959 37.2639)"/>
</clipPath>
</defs>
</svg>
