<svg width="305" height="311" viewBox="0 0 305 311" fill="none" xmlns="http://www.w3.org/2000/svg">
<path d="M172.278 35.7114C170.878 36.512 169.477 37.3125 167.075 37.3125C164.253 37.3125 158.269 36.512 158.269 32.5093C158.269 28.5066 164.673 26.105 169.477 26.105C171.503 26.105 174.195 26.7555 175.881 27.2258L175.881 34.2455C174.395 34.5056 173.334 35.111 172.278 35.7164L172.278 35.7114ZM180.684 27.7061C182.45 27.7061 183.886 29.142 183.886 30.9082C183.886 32.6744 182.45 34.1104 180.684 34.1104L178.282 34.1104L178.282 27.7061L180.684 27.7061Z" fill="#F3F9FF"/>
<path d="M201.674 48.1631C202.523 49.0079 203.378 49.854 204.726 50.4753L202.937 57.1514C201.214 57.169 198.493 57.1029 196.561 56.5853C191.993 55.3613 186.514 51.4452 187.534 47.6384C188.554 43.8317 194.449 44.5953 197.133 45.3144C199.417 45.9264 200.545 47.0447 201.674 48.1631ZM207.628 57.9186L205.344 57.3066L206.976 51.2158L209.26 51.8278C210.939 52.2779 211.939 54.0095 211.489 55.6892C211.039 57.369 209.307 58.3687 207.628 57.9186Z" fill="#F3F9FF"/>
<path d="M237.395 58.4042C235.806 58.3971 234.218 58.39 232.17 57.2077C229.764 55.8185 225.055 52.19 227.026 48.7769C228.996 45.3639 235.64 46.4689 239.735 48.8335C241.463 49.8311 243.438 51.7109 244.644 52.942L241.188 58.9276C239.793 58.4179 238.591 58.4119 237.393 58.4084L237.395 58.4042ZM248.503 55.7162C250.009 56.5857 250.527 58.517 249.657 60.023C248.788 61.529 246.857 62.0465 245.351 61.177L243.303 59.9947L246.456 54.5339L248.503 55.7162Z" fill="#F3F9FF"/>
<path d="M256.676 83.6556C256.99 84.8121 257.307 85.9721 258.164 87.1843L253.276 92.0715C251.775 91.2251 249.452 89.8073 248.037 88.3931C244.693 85.049 241.907 78.9182 244.693 76.1315C247.48 73.3447 252.204 76.9535 254.168 78.9182C255.84 80.5902 256.258 82.1229 256.676 83.6556ZM256.955 95.0812L255.283 93.4092L259.742 88.9504L261.414 90.6225C262.643 91.8521 262.643 93.8516 261.414 95.0812C260.184 96.3109 258.185 96.3109 256.955 95.0812Z" fill="#F3F9FF"/>
<path d="M282.493 110.384C281.12 109.584 279.748 108.783 278.566 106.736C277.176 104.329 274.913 98.8328 278.326 96.8623C281.739 94.8918 286.94 99.1703 289.304 103.266C290.302 104.994 291.073 107.609 291.502 109.279L285.516 112.734C284.563 111.595 283.524 110.989 282.488 110.387L282.493 110.384ZM293.457 113.611C294.326 115.117 293.809 117.048 292.303 117.917C290.797 118.787 288.865 118.269 287.996 116.763L286.814 114.716L292.274 111.563L293.457 113.611Z" fill="#F3F9FF"/>
<path d="M286.566 141.894C286.259 143.052 285.954 144.215 286.09 145.693L279.414 147.482C278.537 145.999 277.234 143.609 276.716 141.677C275.492 137.109 276.144 130.406 279.951 129.386C283.757 128.366 286.044 133.853 286.763 136.537C287.375 138.821 286.97 140.357 286.566 141.894ZM281.095 151.928L280.483 149.644L286.573 148.012L287.185 150.296C287.635 151.976 286.636 153.707 284.956 154.157C283.276 154.607 281.545 153.608 281.095 151.928Z" fill="#F3F9FF"/>
<path d="M295.294 177.806C294.526 176.405 293.759 175.004 293.759 172.603C293.759 169.781 294.526 163.797 298.362 163.797C302.198 163.797 304.5 170.201 304.5 175.004C304.5 177.031 303.876 179.723 303.426 181.409L296.699 181.409C296.449 179.923 295.869 178.862 295.289 177.806L295.294 177.806ZM302.965 186.212C302.965 187.978 301.589 189.414 299.897 189.414C298.204 189.414 296.828 187.978 296.828 186.212L296.828 183.81L302.965 183.81L302.965 186.212Z" fill="#F3F9FF"/>
<path d="M283.331 207.273C282.486 208.123 281.64 208.977 281.018 210.326L274.342 208.537C274.325 206.813 274.391 204.092 274.908 202.16C276.132 197.592 280.048 192.114 283.855 193.134C287.662 194.154 286.898 200.049 286.179 202.732C285.567 205.017 284.449 206.145 283.331 207.273ZM273.575 213.227L274.187 210.943L280.278 212.575L279.666 214.859C279.216 216.539 277.484 217.539 275.804 217.089C274.125 216.639 273.125 214.907 273.575 213.227Z" fill="#F3F9FF"/>
<path d="M273.092 242.994C273.099 241.405 273.106 239.817 274.288 237.769C275.677 235.363 279.306 230.654 282.719 232.625C286.132 234.595 285.027 241.238 282.662 245.334C281.665 247.062 279.785 249.037 278.554 250.243L272.568 246.787C273.078 245.392 273.084 244.19 273.087 242.991L273.092 242.994ZM275.78 254.102C274.91 255.608 272.979 256.126 271.473 255.256C269.967 254.387 269.449 252.456 270.319 250.95L271.501 248.902L276.962 252.055L275.78 254.102Z" fill="#F3F9FF"/>
<path d="M247.841 262.276C246.684 262.589 245.524 262.906 244.312 263.763L239.425 258.876C240.271 257.374 241.689 255.051 243.103 253.637C246.447 250.293 252.578 247.506 255.365 250.293C258.152 253.079 254.543 257.803 252.578 259.768C250.906 261.44 249.373 261.858 247.841 262.276ZM236.415 262.554L238.087 260.882L242.546 265.341L240.874 267.013C239.644 268.243 237.645 268.243 236.415 267.013C235.185 265.783 235.185 263.784 236.415 262.554Z" fill="#F3F9FF"/>
<path d="M221.111 288.092C221.912 286.72 222.712 285.348 224.76 284.165C227.166 282.776 232.663 280.513 234.633 283.926C236.604 287.339 232.325 292.539 228.23 294.904C226.502 295.902 223.886 296.672 222.217 297.101L218.761 291.116C219.9 290.162 220.507 289.124 221.109 288.088L221.111 288.092ZM217.885 299.056C216.379 299.926 214.448 299.408 213.578 297.902C212.709 296.396 213.226 294.465 214.732 293.595L216.78 292.413L219.933 297.874L217.885 299.056Z" fill="#F3F9FF"/>
<path d="M189.603 292.166C188.444 291.86 187.281 291.554 185.803 291.69L184.014 285.014C185.498 284.137 187.887 282.834 189.819 282.316C194.387 281.092 201.09 281.744 202.11 285.551C203.13 289.358 197.643 291.644 194.959 292.363C192.675 292.975 191.139 292.571 189.603 292.166ZM179.568 286.695L181.852 286.083L183.484 292.174L181.2 292.786C179.521 293.236 177.789 292.236 177.339 290.556C176.889 288.877 177.889 287.145 179.568 286.695Z" fill="#F3F9FF"/>
<path d="M153.546 301.157C154.925 300.369 156.305 299.581 158.669 299.581C161.448 299.581 167.34 300.369 167.34 304.31C167.34 308.251 161.034 310.616 156.305 310.616C154.309 310.616 151.659 309.976 149.999 309.512L149.999 302.601C151.462 302.345 152.506 301.749 153.546 301.153L153.546 301.157ZM145.27 309.04C143.531 309.04 142.117 307.626 142.117 305.887C142.117 304.148 143.531 302.734 145.27 302.734L147.634 302.734L147.634 309.04L145.27 309.04Z" fill="#F3F9FF"/>
<path d="M124.222 288.932C123.372 288.087 122.517 287.241 121.169 286.619L122.958 279.943C124.681 279.926 127.402 279.992 129.334 280.509C133.902 281.733 139.381 285.65 138.361 289.456C137.341 293.263 131.446 292.499 128.762 291.78C126.478 291.168 125.35 290.05 124.222 288.932ZM118.268 279.176L120.552 279.788L118.92 285.879L116.635 285.267C114.956 284.817 113.956 283.085 114.406 281.405C114.856 279.726 116.588 278.726 118.268 279.176Z" fill="#F3F9FF"/>
<path d="M88.5002 278.691C90.0889 278.698 91.6775 278.705 93.7253 279.887C96.1315 281.276 100.84 284.905 98.8694 288.318C96.8989 291.731 90.2557 290.626 86.1601 288.261C84.4322 287.264 82.4572 285.384 81.251 284.153L84.7068 278.167C86.1019 278.677 87.3044 278.683 88.5027 278.686L88.5002 278.691ZM77.3918 281.379C75.8858 280.509 75.3683 278.578 76.2378 277.072C77.1073 275.566 79.0386 275.048 80.5446 275.918L82.5924 277.1L79.4396 282.561L77.3918 281.379Z" fill="#F3F9FF"/>
<path d="M69.2183 253.441C68.9048 252.285 68.5878 251.125 67.7309 249.912L72.6181 245.025C74.1195 245.872 76.4429 247.289 77.8572 248.704C81.2012 252.048 83.9879 258.179 81.2012 260.965C78.4145 263.752 73.691 260.143 71.7263 258.178C70.0543 256.506 69.6363 254.974 69.2183 253.441ZM68.9396 242.015L70.6117 243.688L66.1529 248.146L64.4809 246.474C63.2512 245.245 63.2512 243.245 64.4809 242.015C65.7105 240.786 67.71 240.786 68.9396 242.015Z" fill="#F3F9FF"/>
<path d="M43.4035 226.71C44.7757 227.511 46.148 228.311 47.3303 230.359C48.7195 232.765 50.9829 238.262 47.5698 240.232C44.1568 242.203 38.9561 237.924 36.5915 233.829C35.594 232.101 34.8234 229.485 34.3944 227.816L40.38 224.36C41.3334 225.499 42.3718 226.106 43.4077 226.708L43.4035 226.71ZM32.4393 223.484C31.5698 221.978 32.0873 220.047 33.5933 219.177C35.0993 218.308 37.0307 218.825 37.9002 220.331L39.0825 222.379L33.6216 225.532L32.4393 223.484Z" fill="#F3F9FF"/>
<path d="M39.3299 195.202C39.6366 194.044 39.9421 192.881 39.8061 191.403L46.4822 189.614C47.3592 191.098 48.6624 193.487 49.1801 195.419C50.4041 199.987 49.7521 206.69 45.9453 207.71C42.1386 208.73 39.8523 203.243 39.1332 200.559C38.5212 198.275 38.9255 196.739 39.3299 195.202ZM44.8014 185.168L45.4134 187.452L39.3226 189.084L38.7106 186.8C38.2605 185.121 39.2602 183.389 40.94 182.939C42.6197 182.489 44.3513 183.489 44.8014 185.168Z" fill="#F3F9FF"/>
<path d="M30.3364 159.146C31.1246 160.526 31.9128 161.905 31.9128 164.27C31.9128 167.048 31.1246 172.94 27.1836 172.94C23.2425 172.94 20.8779 166.634 20.8779 161.905C20.8779 159.91 21.5184 157.259 21.9814 155.599L28.893 155.599C29.1492 157.062 29.7453 158.107 30.3413 159.146L30.3364 159.146ZM22.4544 150.87C22.4544 149.131 23.8682 147.717 25.6072 147.717C27.3462 147.717 28.76 149.131 28.76 150.87L28.76 153.235L22.4544 153.235L22.4544 150.87Z" fill="#F3F9FF"/>
<path d="M47.8994 126.779L46.6479 131.288L51.8859 132.742L49.9604 139.68L28.2799 133.663L31.3125 122.736C32.6924 117.763 36.0534 116.019 41.3955 117.501C44.3324 118.316 46.3266 119.567 47.3778 121.254C47.7749 121.887 48.0398 122.683 48.1723 123.641C48.3049 124.6 48.2139 125.645 47.8994 126.779ZM35.7556 128.265L41.0976 129.748L41.5405 128.152C41.7715 127.319 41.8575 126.696 41.7983 126.281C41.7224 125.836 41.3722 125.527 40.7478 125.354L38.3196 124.68C37.6952 124.507 37.2475 124.594 36.9765 124.943C36.6888 125.261 36.4295 125.837 36.1984 126.669L35.7556 128.265Z" fill="#F3F9FF"/>
<path d="M45.6932 99.0219C48.4718 93.9764 51.5955 92.4088 55.0642 94.3191L66.1012 100.397L64.3646 103.551L61.5773 104.358C61.9563 105.362 62.0561 106.499 61.8766 107.77C61.6972 109.041 61.347 110.15 60.826 111.096C60.3166 112.021 59.832 112.726 59.3722 113.213C58.9125 113.7 58.3534 114.118 57.695 114.468C56.2782 115.249 54.5398 115.072 52.4795 113.938C48.6954 111.854 48.3779 107.953 51.527 102.235L52.2216 100.973L51.0864 100.348C50.6739 100.998 50.3461 101.543 50.1029 101.985C48.7947 104.36 47.9554 106.556 47.5853 108.571L42.6591 106.845C43.1651 104.383 44.1765 101.776 45.6932 99.0219ZM55.2938 107.186L56.5867 107.898L57.2987 106.605C57.8081 105.68 58.0272 105.033 57.9559 104.665C57.8961 104.276 57.6981 103.989 57.3617 103.804L55.8796 102.988L55.1676 104.281C54.7508 105.037 54.5281 105.641 54.4995 106.091C54.4614 106.508 54.7261 106.873 55.2938 107.186ZM45.2105 99.0027C44.5043 100.285 43.7006 101.048 42.7993 101.291C41.8771 101.523 40.8063 101.303 39.587 100.632C38.3466 99.9489 37.5884 99.1615 37.3124 98.2697C37.0153 97.3663 37.2199 96.2734 37.9261 94.991C38.6439 93.6876 39.464 92.92 40.3862 92.6881C41.2875 92.4447 42.3583 92.6645 43.5986 93.3476C44.8179 94.0191 45.5761 94.8065 45.8732 95.7099C46.1492 96.6016 45.9284 97.6992 45.2105 99.0027ZM40.161 97.9479L42.3053 99.1288L43.0347 97.8044C43.2083 97.489 43.3252 97.252 43.3852 97.0933C43.5537 96.6381 43.4067 96.2831 42.9442 96.0284L40.8314 94.8649L40.1541 96.0947C39.8068 96.7254 39.6604 97.1654 39.7149 97.4146C39.781 97.6428 39.9297 97.8206 40.161 97.9479Z" fill="#F3F9FF"/>
<path d="M75.7937 57.9776L81.7412 53.2525L91.3684 74.3404L83.1378 80.8795L64.7726 66.7337L70.72 62.0085L82.0063 71.2953L82.26 71.0937L75.7937 57.9776Z" fill="#F3F9FF"/>
<path d="M105.33 65.5064L97.8379 50.1352L103.916 46.1715L111.802 62.3517L105.33 65.5064ZM97.2948 48.1172C96.6414 47.9817 96.0781 47.4286 95.6049 46.4578C95.1317 45.487 95.0378 44.6918 95.3231 44.0721C95.63 43.4419 96.4954 42.7798 97.9193 42.0858C99.3647 41.3812 100.419 41.1074 101.083 41.2644C101.769 41.4109 102.348 41.9695 102.821 42.9403C103.294 43.9111 103.372 44.7009 103.055 45.3095C102.759 45.9076 101.888 46.5589 100.443 47.2634C99.0192 47.9575 97.9698 48.242 97.2948 48.1172Z" fill="#F3F9FF"/>
<path d="M122.139 38.0172L122.579 39.4638L124.645 38.8355L126.007 43.3132L123.94 43.9415L127.814 56.6856L120.926 58.7798L117.051 46.0357L115.329 46.5592L113.968 42.0816L115.69 41.558L115.303 39.4181C114.822 36.6797 116.441 34.7451 120.161 33.6142C121.125 33.321 122.423 33.0519 124.054 32.8068L125.047 37.4341L122.139 38.0172Z" fill="#F3F9FF"/>
<path d="M134.589 41.4506L134.002 36.8439L135.788 36.6162L135.423 33.7594L142.338 31.0632L142.93 35.7056L145.394 35.3915L145.981 39.9982L143.517 40.3123L144.555 48.4544C145.189 48.4946 145.902 48.4883 146.694 48.4358L147.042 53.7263C143.78 54.1421 141.639 54.2337 140.617 54.001C139.348 53.7273 138.514 53.2531 138.113 52.5783C137.868 52.1741 137.709 51.6862 137.636 51.1149L136.375 41.2229L134.589 41.4506Z" fill="#F3F9FF"/>
</svg>
